<svg width="40" height="48" fill="none" xmlns="http://www.w3.org/2000/svg">
  <g clip-path="url(#a)" filter="url(#b)">
    <path d="M15.82 7.32c.67-.53 1.52.62 1.61 1.68.1 1.05-.85 3.44-3.5 4.06-2.64.61-2.95 2.25-2.86 3.22.09.97-.36 2.03-1.3 1.8-.94-.21-1.03-1.67-.18-3.04.85-1.37 3-2.6 3.36-3.35.36-.75.1-1.64.8-1.94.72-.31 1.67.48 1.58 1.23 0 0 .71-.7.62-1.76-.05-.7-.47-1.64-.13-1.9ZM33.21 13.76c.25-.7 2.02-.3 2.42.67.4.97.27 1.72.67 2.38.4.66-.71 1.76-1.54 1.63-.83-.13-.52-1.63-.52-2.3 0-.66-1.43-1.23-1.03-2.38ZM27.6 5.43c.62-.54 1.94.39 2.3 1.14.35.75.04 2.73-1.06 2.69-1.1-.04-.66-1.6-1.05-1.92-.7-.57-.67-1.48-.18-1.91ZM20.04.83c.44.67.11 1.59-1 1.8-1.1.2-1.3-.71-1.9-.5-.6.2-1.26.35-1.53-.12S15.64.83 16.84.83s2.4-1.24 3.2 0ZM13.09 7.26c.52 0 .94-.44.94-1 0-.55-.42-1-.94-1s-.95.45-.95 1c0 .56.43 1 .95 1ZM9 10.57c-.33-.17-1.43 1.56-.68 1.77.75.2 1.22-1.5.68-1.77ZM6.08 15.69s1.46.8.92 2.43c-.53 1.63-1.7 1.43-2.06.92-.36-.5-.36-1.17.24-1.64.6-.48.9-1.71.9-1.71ZM37.16 24.49s.45.66.22 1.85c-.22 1.2-.58 3.53.67 4.2 1.26.66 1.75-1.68 1.26-2.39-.5-.7.27-3.13-2.15-3.66ZM38.75 35.13c.53 0 .96-.52.96-1.15 0-.63-.43-1.15-.96-1.15s-.97.52-.97 1.15c0 .63.44 1.15.97 1.15ZM.94 35.57c.83-.43 1.52.26 1.61 1.54.1 1.28 1.3 2.39.67 3.05-.62.66-1.35-2.08-1.92-2.33-.88-.39-1.57-1.64-.36-2.26Z" fill="#9EBBFF"/>
    <path d="M36.23 36.85c-.78.8.26 1.62-1.58 3.7-.77.88.56 3.48-3.14 3.45 0 0-2.15 1.94-4.3 2.2-2.16.27-3.05-.08-5.12 1.07-2.06 1.14-6.63-.8-8.51-1.64a8.25 8.25 0 0 0-4.21-.92c-1.62 0-1-2.48-2.16-3.54-1.16-1.06-2.5-1.5-2.6-2.47-.09-.97-.98-1.41-.9-2.91.1-1.5-1.43-1.94-1.6-3.8-.19-1.85.8-2.2.44-3.26-.36-1.06-.45-1.95.1-3 .05-.13.13-.26.21-.37.46-.65.9-.6 1.22-1.67.35-1.23-.63-1.76.44-2.3 1.08-.52 1.44 1.07.81 2.66-.63 1.59-1.43 3.09-.36 3.35 1.08.27.8-3 2.24-4.5 1.44-1.5.81-1.85 2.7-3.35 1.87-1.5 2.05-.89 2.68-2.48.63-1.59 2.4-3.26 4.2-4.06 1.81-.8 2.62-1.14 2.35-2.47-.27-1.33 1.23-1.32 1.29-2.74.05-1.41-1.2-2.38-2.28-2.03-1.07.36-2.15.36-1.8-.8.37-1.14 2.63-1.05 3.7-.52 1.06.53 1.96-.8 3.4.53 1.43 1.32 3.3 1.76 3.04 4.86-.27 3.09-.54 4.14.63 4.32 1.16.18.18-1.41.18-2.65 0-1.23 2.06-1.15 2.6-.17.53.97-.18 2.64.35 3.26.54.62 1.53.53 1.8 1.41.27.89-.18 4.5 1.07 5.3 1.26.8.99-1.94 2.07-1.1 1.07.84 1.34 2.34.71 3.84-.42 1-.46 3.5-.22 5.66.12 1.07.31 2.05.56 2.73.74 2.02.78 3.61 0 4.4Z" fill="#9EBBFF"/>
    <path d="M21.37 14.35c2.36-.74 4.33 3.31 3.51 5.06-.81 1.74-1.16 7.1 1.88 6.44 3.04-.67.82-5.83 2.45-5.73 1.64.1.94 4.83 2 6.33 1.05 1.5 4.68 11.75-1.17 15.32-5.86 3.57-14.14 3.46-17.31.8a13.85 13.85 0 0 1-2.88-3.25 6.84 6.84 0 0 1-.65-1.28c-.29-.77-.24-1.04-.53-1.81a7.3 7.3 0 0 0-.72-1.42c-.63-.96-.92-.84-1.51-1.68a4.8 4.8 0 0 1-.88-2.48c-.02-.33-.06-1.26.34-1.43.45-.18 1.04.78 1.64.58.32-.1.46-.47.54-.7.26-.67 0-1.1-.12-2.1-.1-.77-.2-1.7.25-2.5.08-.12.3-.54 1.02-.93 2.55-1.39 4.84-.12 6.5-2.65 1.67-2.54 1.7-2.7 3.26-3.37 1.56-.67.16-2.51 2.38-3.2Z" fill="#C6D7FF"/>
    <path d="M20.44 48c-1.66 0-3.98-.67-7.02-2.02a7.85 7.85 0 0 0-4.05-.9c-1.23 0-1.5-1.1-1.7-1.98-.15-.63-.3-1.27-.72-1.65-.38-.35-.79-.63-1.18-.9-.78-.54-1.46-1-1.54-1.81-.03-.32-.18-.59-.35-.9-.27-.48-.6-1.08-.55-2.07.04-.62-.26-1.02-.63-1.53a4.15 4.15 0 0 1-.98-2.21c-.1-1.06.14-1.67.34-2.16.16-.4.26-.65.13-1.02a3.93 3.93 0 0 1 .1-3.3c.28-.53.57-.78.8-.98.26-.23.45-.4.62-.98.12-.43.05-.75-.02-1.05-.1-.47-.23-1.04.66-1.48.45-.22.89-.18 1.2.1.57.51.63 1.78.14 3.02l-.26.65c-.35.82-.73 1.76-.56 2.08.01.03.04.09.2.12h.02c.18-.05.39-.88.51-1.37.25-.98.56-2.21 1.33-3.02.59-.61.8-1.02 1.02-1.4.3-.56.58-1.09 1.71-1.99.72-.57 1.2-.85 1.55-1.05.53-.3.68-.39 1.02-1.26.66-1.67 2.47-3.42 4.4-4.27h.02c1.88-.83 2.31-1.07 2.11-2.06-.18-.88.3-1.34.67-1.71.32-.31.6-.58.61-1.11a1.7 1.7 0 0 0-.66-1.44 1.22 1.22 0 0 0-1.1-.22c-.7.23-1.62.4-2.1-.07-.2-.19-.4-.55-.19-1.2.13-.4.45-.73.93-.93a4.55 4.55 0 0 1 3.3.18c.29.15.57.1 1 0 .66-.15 1.48-.33 2.48.6.3.27.64.52.97.76 1.2.88 2.43 1.79 2.2 4.4l-.1 1.06c-.23 2.45-.18 2.77.4 2.86h.13c.03-.15-.08-.58-.15-.87-.11-.44-.24-.94-.24-1.41 0-.61.38-1.07 1.02-1.23.77-.2 1.87.08 2.3.87.33.6.27 1.34.23 2-.04.47-.08 1.02.09 1.2.16.2.41.3.68.43.43.2.98.44 1.19 1.12.1.32.1.86.13 1.54.03 1.24.08 3.11.78 3.55.13.08.2.1.22.09.1-.03.25-.35.34-.53.17-.36.36-.77.76-.86.25-.06.5.01.77.22 1.2.94 1.53 2.62.84 4.28-.58 1.38-.38 6.16.34 8.12.82 2.25.79 3.9-.09 4.8-.2.2-.22.4-.25.8-.05.65-.12 1.53-1.32 2.9-.15.16-.19.53-.23.92-.1 1.04-.25 2.61-3.05 2.65-.5.41-2.42 1.96-4.4 2.2-.62.08-1.13.1-1.59.13a6.5 6.5 0 0 0-3.38.88c-.5.27-1.1.41-1.85.41ZM4.9 21.67a.51.51 0 0 0-.21.07c-.36.17-.35.22-.26.63.08.35.18.82 0 1.43-.22.8-.54 1.07-.84 1.33-.21.19-.4.36-.62.76-.49.98-.39 1.76-.06 2.72.21.64.03 1.1-.15 1.54-.17.43-.37.93-.28 1.8.08.83.46 1.35.83 1.85.41.55.83 1.12.78 2.01-.05.78.2 1.21.46 1.67.2.35.4.71.44 1.19.04.46.56.81 1.22 1.27.39.26.83.57 1.25.96.6.53.78 1.33.95 2.03.23 1 .39 1.4.95 1.4 1.6 0 2.4.08 4.37.96 5.1 2.27 7.26 2.15 8.17 1.65a7.21 7.21 0 0 1 3.72-.99c.45-.02.95-.05 1.53-.12 2-.25 4.07-2.1 4.09-2.1.07-.07.16-.1.26-.1 2.24 0 2.33-.91 2.44-1.98.05-.5.1-.99.4-1.34 1.04-1.17 1.1-1.89 1.14-2.46.03-.42.06-.85.47-1.26.64-.66.61-2.12-.08-4.03-.8-2.16-.98-7.1-.33-8.66.56-1.34.32-2.67-.6-3.4a.53.53 0 0 0-.12-.07c-.07.07-.18.3-.24.43-.18.38-.38.82-.82.94-.26.08-.55.02-.85-.17-1.04-.66-1.1-2.6-1.14-4.17-.02-.57-.03-1.11-.1-1.34-.1-.34-.35-.46-.77-.65-.32-.14-.67-.3-.95-.62-.37-.43-.32-1.07-.27-1.76.04-.58.09-1.18-.13-1.57-.24-.44-.96-.63-1.44-.51-.44.11-.44.4-.44.5 0 .38.11.83.21 1.23.17.66.3 1.23-.02 1.58-.18.2-.45.27-.81.21-1.38-.2-1.27-1.36-1.05-3.67l.1-1.06c.19-2.19-.73-2.87-1.9-3.73-.34-.25-.7-.5-1.03-.81-.7-.65-1.18-.55-1.79-.41-.45.1-.96.21-1.52-.06a3.79 3.79 0 0 0-2.65-.17c-.27.12-.43.27-.5.47-.06.21-.07.38 0 .43.1.1.53.15 1.31-.1.6-.2 1.26-.08 1.81.32.64.47 1 1.25.97 2.08-.03.83-.48 1.26-.84 1.61-.37.37-.55.57-.46 1.04.33 1.61-.75 2.1-2.55 2.88-1.75.77-3.43 2.4-4 3.86-.44 1.08-.72 1.28-1.36 1.65-.33.19-.78.44-1.45.98-1.01.8-1.25 1.24-1.52 1.75-.23.41-.48.88-1.14 1.57-.63.66-.91 1.78-1.14 2.69-.14.52-.25.98-.42 1.32-.33.66-.8.66-1.05.6-.4-.1-.6-.34-.7-.52-.32-.63.08-1.59.54-2.7l.25-.64c.43-1.07.31-1.97.07-2.2a.16.16 0 0 0-.13-.04Z" fill="#407BFF"/>
    <path d="M10.01 18.4c-.1 0-.2-.01-.3-.04a1.2 1.2 0 0 1-.85-.73c-.3-.72-.12-1.77.48-2.74.5-.78 1.36-1.5 2.12-2.13.56-.47 1.1-.9 1.23-1.2.12-.24.16-.51.2-.78.08-.49.16-1.04.75-1.3.4-.17.9-.1 1.32.21.21.16.38.36.5.59.13-.27.24-.63.2-1.04a5.5 5.5 0 0 0-.12-.7c-.14-.6-.27-1.16.1-1.44a.86.86 0 0 1 .9-.12c.59.25 1.1 1.12 1.18 2 .1 1.15-.92 3.7-3.72 4.35-2.48.58-2.72 2.08-2.64 2.92.07.77-.17 1.5-.6 1.88-.2.17-.47.27-.75.27Zm4.09-8.44a.56.56 0 0 0-.23.04c-.28.13-.34.39-.41.86-.04.3-.1.63-.25.95-.19.4-.71.83-1.38 1.38-.73.6-1.55 1.3-2 2-.49.8-.67 1.69-.44 2.22.09.22.24.36.45.4.21.05.4.02.54-.11.3-.25.46-.81.4-1.4-.07-.82.07-2.81 3.1-3.52 2.45-.57 3.35-2.77 3.27-3.76-.06-.71-.5-1.37-.84-1.52a.28.28 0 0 0-.31.04c-.08.1.04.6.1.87.06.26.12.53.14.78a2.65 2.65 0 0 1-.71 2 .29.29 0 0 1-.49-.24c.03-.27-.14-.59-.42-.8a.9.9 0 0 0-.52-.19ZM34.9 18.74c-.06 0-.12 0-.19-.02-.93-.15-.84-1.34-.78-2.13l.03-.44c0-.16-.2-.38-.4-.6-.39-.43-.92-1.03-.62-1.88.12-.34.45-.54.92-.55.73-.02 1.72.43 2.04 1.2.2.49.28.92.34 1.3.07.4.13.74.31 1.04.2.34.16.77-.13 1.2-.32.46-.92.88-1.52.88Zm-1-5.05h-.03c-.1 0-.34.02-.39.17-.17.5.1.85.52 1.32.27.3.53.6.53.97l-.02.48c-.05.58-.11 1.47.3 1.53.35.06.86-.22 1.13-.63.08-.1.24-.38.12-.58-.24-.4-.31-.8-.39-1.23a5.15 5.15 0 0 0-.3-1.19c-.21-.5-.93-.84-1.46-.84ZM28.88 9.54h-.05c-.95-.03-1.05-.93-1.12-1.46-.02-.18-.05-.47-.1-.52a1.7 1.7 0 0 1-.65-1.27c0-.42.16-.81.46-1.07.23-.21.55-.28.92-.2.75.14 1.54.85 1.82 1.43.27.58.22 1.78-.27 2.5-.26.4-.6.6-1.01.6Zm-.81-3.99c-.11 0-.2.03-.27.09a.82.82 0 0 0-.26.64c0 .32.16.62.43.84.23.2.27.53.32.9.07.64.15.94.56.96.22 0 .4-.1.56-.34.36-.54.43-1.52.22-1.95a2.38 2.38 0 0 0-1.4-1.12.8.8 0 0 0-.16-.02ZM18.73 2.94c-.51 0-.83-.22-1.08-.4-.23-.15-.3-.19-.42-.15-.43.15-1.45.5-1.87-.24a.95.95 0 0 1 0-.96c.15-.24.53-.64 1.48-.64.36 0 .75-.14 1.13-.28.74-.26 1.67-.6 2.31.4.27.41.3.89.12 1.3-.2.48-.68.82-1.3.93-.12.03-.24.04-.37.04ZM17.31 1.8c.27 0 .49.15.67.27.27.19.52.36 1.01.27.44-.09.75-.3.89-.6a.8.8 0 0 0-.08-.77c-.38-.59-.82-.46-1.64-.17-.42.15-.86.3-1.32.3-.49 0-.84.13-.98.36a.38.38 0 0 0 0 .4c.13.23.5.22 1.18-.01a.81.81 0 0 1 .27-.05ZM13.09 7.55c-.68 0-1.23-.58-1.23-1.28 0-.71.55-1.29 1.23-1.29.67 0 1.22.58 1.22 1.29 0 .7-.55 1.28-1.22 1.28Zm0-2c-.36 0-.66.32-.66.72 0 .39.3.71.66.71.36 0 .65-.32.65-.71 0-.4-.3-.72-.65-.72ZM8.45 12.64a.77.77 0 0 1-.2-.03.61.61 0 0 1-.46-.49c-.1-.55.42-1.42.81-1.71.24-.18.42-.15.53-.1.46.23.47.94.25 1.51-.2.52-.55.82-.93.82Zm.46-1.76c-.2.18-.58.76-.56 1.1 0 .07.02.08.05.08.16.05.34-.2.44-.44.13-.33.12-.61.07-.74ZM5.7 19.69c-.4 0-.78-.18-1-.48a1.43 1.43 0 0 1 .3-2.03c.43-.34.72-1.24.8-1.56a.28.28 0 0 1 .16-.19.3.3 0 0 1 .26.01 2.3 2.3 0 0 1 1.06 2.77c-.38 1.15-1.04 1.41-1.4 1.46l-.19.02Zm.54-3.53a3.32 3.32 0 0 1-.88 1.46c-.51.4-.42.93-.18 1.26.1.14.33.28.61.23.4-.05.73-.44.94-1.08a1.68 1.68 0 0 0-.5-1.87ZM38.48 30.94a1.2 1.2 0 0 1-.56-.15c-1.36-.72-1.12-2.91-.82-4.5.2-1.05-.18-1.64-.18-1.64a.28.28 0 0 1 .13-.42.3.3 0 0 1 .17-.02c1.9.42 2.05 1.93 2.15 2.92.04.37.07.71.18.86.42.6.26 1.96-.3 2.58-.22.24-.49.37-.77.37Zm-.84-6c.09.35.14.84.02 1.45-.4 2.19-.23 3.5.53 3.9.25.13.45.1.63-.1.4-.45.5-1.52.25-1.88-.19-.27-.23-.66-.27-1.12-.08-.85-.18-1.79-1.16-2.24ZM38.75 35.41c-.7 0-1.25-.64-1.25-1.43 0-.79.56-1.43 1.25-1.43s1.25.64 1.25 1.43c0 .79-.56 1.43-1.25 1.43Zm0-2.3c-.37 0-.68.4-.68.87 0 .48.3.86.68.86.37 0 .67-.38.67-.86s-.3-.87-.67-.87ZM3.02 40.55l-.08-.01c-.45-.07-.77-.7-1.15-1.45a3.88 3.88 0 0 0-.61-1C.5 37.79.02 37.13 0 36.5c-.01-.5.27-.92.8-1.2.4-.2.81-.2 1.16-.01.5.28.82.93.88 1.8.03.49.25.95.47 1.4.3.66.62 1.33.12 1.85-.14.16-.3.2-.41.2Zm-1.6-4.82c-.11 0-.23.03-.35.09-.33.17-.5.4-.5.68.02.4.39.87.85 1.07.3.14.53.57.89 1.27.18.36.52 1.03.7 1.13.22-.23.06-.62-.23-1.22a4.6 4.6 0 0 1-.52-1.62c-.04-.66-.26-1.16-.58-1.34a.53.53 0 0 0-.26-.06ZM22.77 32.5c.23 1.13-.5 2.31-1.57 2.76-1.49.67-3.35-.12-3.8-1.68-.1-.36-.13-.73-.06-1.08.01-.04.03-.07.06-.1a.17.17 0 0 1 .27.1c.25 1.14 1.22 2 2.37 1.99 1.15 0 2.09-.86 2.34-1.99.04-.2.35-.2.39 0Z" fill="#407BFF"/>
    <path d="M9.89 34.23c1.04-.2 1.67-1.42 1.42-2.72-.26-1.31-1.3-2.21-2.34-2.02-1.04.2-1.67 1.42-1.42 2.72.25 1.31 1.3 2.21 2.34 2.02ZM9.95 28.2c1.07.33 2.15-3.13 4.05-3.91 1.9-.79 3.15-3.25 3.73-4.84.59-1.6 2.98-2.63 2.47-3.75-.5-1.11-2.7-.21-3.98 1.48-1.3 1.7-.72 3.47-2.66 4.21-1.95.75-5.83 6.13-3.61 6.8Z" fill="#fff" opacity=".5"/>
    <path d="M35.26 36.73c-.74.72.24 1.46-1.5 3.35-.72.78.54 3.13-2.94 3.1 0 0-2.03 1.76-4.05 2s-2.86-.08-4.8.95c-1.94 1.04-6.24-.71-8-1.47a8 8 0 0 0-3.97-.84c-1.51 0-.92-2.23-2.02-3.19-1.1-.95-2.36-1.35-2.44-2.23-.09-.87-.93-1.27-.84-2.63.08-1.35-1.35-1.75-1.52-3.43-.17-1.67.76-1.99.42-2.95-.34-.95-.42-1.75.08-2.7.06-.12.13-.23.21-.34.02.55.06 1.09.24 1.42.2.35.46.67.57 1.05.31.97-.37 1.95-.47 2.96-.19 1.86 1.56 3.3 2.75 4.78 1.06 1.33 1.82 2.96 3.32 3.82 1.67.97 3.84.72 5.67.06 1.82-.65 3.5-1.68 5.36-2.25 2.15-.65 4.46-.66 6.72-.55 1.63.08 3.5.14 4.62-.97.66-.63.92-1.54 1.1-2.4.34-1.68.46-3.39.38-5.09l.59 1.1c.1.97.29 1.86.52 2.46.7 1.84.73 3.27 0 3.99Z" fill="#407BFF" opacity=".2"/>
    <path d="M25.41 24.93c1.23-.12 2.37 1.2 2.54 2.96.17 1.76-.69 3.3-1.92 3.41-1.23.13-2.37-1.2-2.54-2.96-.17-1.76.7-3.29 1.92-3.41Z" fill="#407BFF"/>
    <path d="M25.5 25.67c.4.16.56.76.38 1.34-.19.57-.65.91-1.05.75-.39-.16-.56-.76-.37-1.34.18-.58.65-.91 1.04-.75Z" fill="#fff"/>
    <path d="M26.82 29.45c.18.14.2.47.05.74-.16.27-.44.38-.62.25-.19-.14-.21-.47-.05-.74.15-.27.43-.38.62-.25Z" fill="#8BAEFF"/>
    <path d="M14.86 24.93c-1.23-.12-2.37 1.2-2.54 2.96-.17 1.76.69 3.3 1.92 3.41 1.23.13 2.37-1.2 2.54-2.96.17-1.76-.7-3.29-1.92-3.41Z" fill="#407BFF"/>
    <path d="M14.77 25.67c-.4.16-.56.76-.38 1.34.19.57.65.91 1.05.75.39-.16.56-.76.37-1.34-.18-.58-.65-.91-1.04-.75Z" fill="#fff"/>
    <path d="M13.45 29.45c-.18.14-.2.47-.05.74.16.27.44.38.62.25.19-.14.21-.47.05-.74-.15-.27-.43-.38-.62-.25Z" fill="#8BAEFF"/>
  </g>
  <defs>
    <clipPath id="a">
      <path fill="#fff" d="M0 0h40v48H0z"/>
    </clipPath>
    <filter id="b" x="-4" y="-4" width="48" height="56" filterUnits="userSpaceOnUse" color-interpolation-filters="sRGB">
      <feFlood flood-opacity="0" result="BackgroundImageFix"/>
      <feGaussianBlur in="BackgroundImageFix" stdDeviation="2"/>
      <feComposite in2="SourceAlpha" operator="in" result="effect1_backgroundBlur_146_915"/>
      <feBlend in="SourceGraphic" in2="effect1_backgroundBlur_146_915" result="shape"/>
    </filter>
  </defs>
</svg>